# xmcd
#
# Track frame offsets:
#	150
#	16140
#	30280
#	61692
#	75637
#	89282
#	102090
#	115260
#	127632
#	147175
#	163755
#	185820
#	202767
#	216802
#
# Disc length: 3028 seconds
#
# Revision: 0
# Processed by: cddbd v1.4PL0 Copyright (c) Steve Scherf et al.
# Submitted via: dBpowerAMP V4.0
#
DISCID=a70bd20e
DTITLE=Various Artist - Our Land Australia 
DYEAR=1900
DGENRE=Country
TTITLE0=James Blundell - Age of Grace
TTITLE1=Slim Dusty - Cattlemen From the High Plains
TTITLE2=Eric Bogle - And the Band Played Walzing Matilda
TTITLE3=Anne Kirkpatrick - In my Grandmother's Arms
TTITLE4=John Broomhall - Free as the Breeze
TTITLE5=Kikkatinnalong - Room Down Under
TTITLE6=Bob Brown - Home Among the Gum Trees
TTITLE7=John Williamson - Station Cook
TTITLE8=Normal Murphy - Who's Takin' You Home
TTITLE9=Flying Emus - I Don't Know About That
TTITLE10=Ted Egan - Snowy Mountains Stockmen
TTITLE11=Keith Urban - I Never Work on a Sunday
TTITLE12=Jim Haynes - It's a Funny Old Game
TTITLE13=Lawrie Minson - Wild River
EXTD=
EXTT0=
EXTT1=
EXTT2=
EXTT3=
EXTT4=
EXTT5=
EXTT6=
EXTT7=
EXTT8=
EXTT9=
EXTT10=
EXTT11=
EXTT12=
EXTT13=
PLAYORDER=
